<svg xmlns="http://www.w3.org/2000/svg" width="64" height="64" viewBox="0 0 64 64">
  <g fill="#F2F5F8">
    <rect x="27.5" y="7" width="9" height="10" rx="2"/>
    <rect x="27.5" y="7" width="9" height="10" rx="2" transform="rotate(45 32 32)"/>
    <rect x="27.5" y="7" width="9" height="10" rx="2" transform="rotate(90 32 32)"/>
    <rect x="27.5" y="7" width="9" height="10" rx="2" transform="rotate(135 32 32)"/>
    <rect x="27.5" y="7" width="9" height="10" rx="2" transform="rotate(180 32 32)"/>
    <rect x="27.5" y="7" width="9" height="10" rx="2" transform="rotate(225 32 32)"/>
    <rect x="27.5" y="7" width="9" height="10" rx="2" transform="rotate(270 32 32)"/>
    <rect x="27.5" y="7" width="9" height="10" rx="2" transform="rotate(315 32 32)"/>
  </g>
  <g fill="#F2F5F8" stroke="#F2F5F8" stroke-linecap="round" stroke-linejoin="round" stroke-width="4.25">
    <circle cx="32" cy="32" r="16.5"/>
  </g>
</svg>
