<svg xmlns="http://www.w3.org/2000/svg" width="64" height="64" viewBox="0 0 64 64">
  <g fill="#F2F5F8">
    <rect x="29" y="4" width="6" height="11" rx="1.5"/>
    <rect x="29" y="49" width="6" height="11" rx="1.5"/>
    <rect x="4" y="29" width="11" height="6" rx="1.5"/>
    <rect x="49" y="29" width="11" height="6" rx="1.5"/>
    <rect x="29" y="4" width="6" height="11" rx="1.5" transform="rotate(45 32 32)"/>
    <rect x="29" y="4" width="6" height="11" rx="1.5" transform="rotate(90 32 32)"/>
    <rect x="29" y="4" width="6" height="11" rx="1.5" transform="rotate(135 32 32)"/>
    <rect x="29" y="4" width="6" height="11" rx="1.5" transform="rotate(225 32 32)"/>
    <rect x="29" y="4" width="6" height="11" rx="1.5" transform="rotate(270 32 32)"/>
    <rect x="29" y="4" width="6" height="11" rx="1.5" transform="rotate(315 32 32)"/>
  </g>
  <g fill="none" stroke="#F2F5F8" stroke-linecap="round" stroke-linejoin="round" stroke-width="5">
    <circle cx="32" cy="32" r="16"/>
    <circle cx="32" cy="32" r="7"/>
  </g>
</svg>



